<?xml version="1.0" standalone="no"?>
<!DOCTYPE svg PUBLIC "-//W3C//DTD SVG 20010904//EN"
 "http://www.w3.org/TR/2001/REC-SVG-20010904/DTD/svg10.dtd">
<svg version="1.0" xmlns="http://www.w3.org/2000/svg"
 width="845.000000pt" height="850.000000pt" viewBox="0 0 845.000000 850.000000"
 preserveAspectRatio="xMidYMid meet">

<g transform="translate(0.000000,850.000000) scale(0.100000,-0.100000)"
fill="#000000" stroke="none">
<path d="M4860 7235 c-122 -26 -217 -66 -357 -149 -73 -43 -83 -53 -89 -83 -4
-19 -19 -60 -34 -91 -51 -106 -72 -181 -73 -256 -1 -103 34 -160 117 -186 80
-26 155 -3 333 102 90 53 114 64 188 84 94 26 194 -20 196 -90 2 -67 -3 -122
-18 -185 -20 -86 -29 -249 -14 -264 6 -6 11 -19 11 -29 0 -33 91 -113 156
-138 79 -31 201 -39 237 -15 54 35 60 58 67 235 8 200 19 239 82 303 40 40 53
47 85 47 53 0 104 -44 144 -125 30 -62 37 -84 59 -205 33 -174 62 -689 42
-719 -15 -21 -185 -34 -357 -27 -114 4 -172 12 -242 31 -121 32 -165 53 -313
150 -69 44 -156 97 -195 117 -70 36 -255 106 -330 126 -101 26 -124 31 -180
41 -157 27 -254 35 -420 36 -275 0 -367 -17 -339 -62 9 -14 20 -17 50 -13 71
9 508 4 584 -7 312 -45 547 -131 785 -288 195 -128 295 -167 506 -196 81 -11
281 -8 402 7 l47 6 0 -54 c0 -61 -25 -350 -41 -478 -28 -222 -34 -268 -58
-425 -17 -105 -72 -399 -90 -480 -5 -22 -14 -64 -20 -93 -17 -82 -25 -92 -75
-92 -42 0 -179 19 -281 39 -165 33 -332 89 -515 174 -181 84 -448 222 -502
259 -14 10 -29 18 -32 18 -3 0 -40 21 -83 46 -269 159 -464 217 -728 218 -160
0 -236 -11 -355 -50 -147 -49 -186 -76 -155 -108 13 -12 23 -10 82 13 153 62
231 76 433 75 168 -1 194 -3 283 -28 149 -41 249 -84 412 -179 332 -193 572
-311 870 -427 143 -56 410 -110 540 -110 60 0 65 -2 65 -22 0 -12 -4 -35 -10
-52 -5 -17 -21 -80 -35 -141 -14 -60 -29 -127 -35 -147 -5 -21 -15 -57 -21
-80 -7 -24 -16 -56 -20 -73 -5 -16 -36 -127 -70 -245 -36 -127 -67 -221 -77
-229 -13 -10 -48 -12 -162 -7 -80 3 -170 10 -200 15 -30 5 -84 14 -120 20
-118 19 -405 76 -512 102 -21 5 -55 13 -75 18 -47 10 -378 96 -453 117 -30 8
-73 20 -95 26 -22 6 -53 15 -69 21 -24 9 -31 8 -42 -8 -8 -10 -14 -36 -14 -56
0 -21 -4 -48 -9 -61 -10 -26 -29 -92 -60 -213 -6 -22 -22 -89 -36 -150 -14
-60 -30 -126 -35 -145 -5 -19 -13 -55 -19 -80 -5 -25 -14 -65 -20 -90 -55
-236 -112 -598 -132 -842 -26 -322 34 -539 159 -576 55 -17 76 -15 128 10 87
40 186 162 279 341 50 97 143 315 174 407 12 36 26 74 31 85 11 23 51 146 87
260 48 157 65 210 74 245 6 19 14 50 20 68 5 17 13 47 18 65 14 47 61 226 72
270 5 20 14 56 19 80 6 23 15 59 19 80 5 21 11 41 15 44 6 7 65 -3 256 -42
477 -96 697 -109 756 -44 14 16 50 119 85 247 5 17 13 47 18 65 33 116 176
674 190 742 63 292 85 404 110 555 5 25 15 88 24 140 166 976 137 1781 -78
2238 -19 40 -35 75 -35 78 0 19 -125 186 -182 244 -123 124 -243 191 -419 234
-119 29 -277 34 -379 11z m349 -66 c273 -64 462 -224 601 -509 38 -76 46 -104
29 -97 -8 3 -31 11 -51 18 -53 17 -108 -1 -165 -54 -82 -75 -103 -143 -108
-336 -4 -171 -8 -187 -49 -201 -67 -22 -225 32 -267 91 -27 39 -35 130 -19
224 45 262 43 303 -19 364 -94 93 -238 80 -436 -39 -149 -90 -223 -115 -281
-97 -66 20 -92 104 -63 196 47 146 98 250 144 289 34 31 185 109 245 129 53
16 121 32 160 37 54 6 227 -3 279 -15z m-1301 -4240 c42 -11 102 -27 132 -36
141 -38 216 -58 290 -75 98 -22 110 -28 110 -53 0 -13 -9 -61 -21 -107 -11
-46 -25 -99 -29 -118 -5 -19 -13 -51 -18 -70 -6 -19 -18 -62 -27 -95 -226
-831 -462 -1376 -641 -1481 -102 -60 -173 -11 -209 143 -17 68 -20 349 -6 451
5 37 15 108 21 157 15 111 42 275 70 410 4 22 13 65 19 95 6 30 18 84 26 120
8 36 20 88 26 115 26 119 63 264 100 395 6 19 14 51 18 70 5 19 11 43 15 53 3
9 8 24 11 32 6 20 21 19 113 -6z"/>
<path d="M4160 7215 c0 -11 12 -15 48 -15 27 0 51 -2 53 -5 3 -2 -10 -35 -28
-73 -37 -78 -53 -137 -34 -131 6 2 27 39 45 81 18 42 43 88 55 103 37 48 30
55 -59 55 -64 0 -80 -3 -80 -15z"/>
<path d="M3632 6573 c-7 -3 -26 -24 -42 -48 -40 -58 -43 -139 -7 -173 42 -40
94 -24 114 34 20 59 -29 118 -81 98 -24 -9 -19 8 10 39 26 28 30 58 6 50z m19
-123 c13 -8 19 -21 19 -45 0 -29 -4 -36 -25 -41 -53 -13 -92 66 -42 86 29 11
26 11 48 0z"/>
<path d="M3878 6406 c-23 -17 -23 -39 1 -60 38 -34 85 26 49 62 -15 15 -29 15
-50 -2z"/>
<path d="M3170 5775 c0 -71 11 -82 45 -45 36 40 79 16 73 -42 -4 -42 -47 -70
-78 -50 -26 16 -40 15 -40 -3 0 -31 78 -47 111 -22 45 34 52 105 14 143 -21
21 -31 24 -61 18 -32 -6 -36 -4 -32 12 2 15 14 20 52 24 27 3 51 11 54 18 3 9
-15 12 -67 12 l-71 0 0 -65z"/>
<path d="M3478 5635 c-8 -19 -8 -28 2 -40 18 -21 57 -19 70 4 13 25 13 27 -6
45 -23 24 -53 20 -66 -9z"/>
<path d="M3003 4978 c-34 -39 -83 -116 -83 -132 0 -11 13 -16 47 -18 44 -3 48
-5 53 -32 7 -41 30 -46 30 -7 0 19 6 34 15 38 14 5 14 8 1 28 -8 12 -16 49
-18 81 -3 64 -15 75 -45 42z m17 -78 c0 -32 -18 -47 -45 -36 -14 5 -13 10 6
36 29 38 39 38 39 0z"/>
<path d="M3180 4845 c-31 -38 27 -83 62 -47 16 16 18 23 9 41 -13 24 -53 28
-71 6z"/>
<path d="M2652 4194 c-29 -20 -19 -36 14 -24 29 11 64 -2 64 -24 0 -8 -16 -20
-36 -28 l-36 -15 37 -21 c30 -18 36 -27 33 -50 -2 -21 -9 -28 -31 -30 -16 -2
-35 2 -43 9 -10 8 -18 9 -25 2 -15 -15 27 -43 64 -43 31 0 77 39 77 65 0 9 -7
26 -16 40 -12 18 -13 28 -4 44 15 29 3 66 -26 80 -33 15 -45 14 -72 -5z"/>
<path d="M2950 4036 c-28 -34 11 -94 44 -67 22 18 20 58 -3 71 -25 13 -26 13
-41 -4z"/>
<path d="M2598 3456 c-17 -12 -25 -36 -13 -36 4 0 19 7 34 15 23 12 31 12 46
1 25 -18 12 -45 -39 -84 -45 -33 -60 -67 -44 -96 13 -22 128 -23 128 -1 0 12
-13 15 -55 15 -71 0 -71 15 -2 66 41 31 53 46 55 72 2 19 -3 38 -12 47 -18 18
-75 19 -98 1z"/>
<path d="M2799 3424 c-12 -24 -12 -28 10 -45 38 -31 85 9 58 51 -17 28 -51 25
-68 -6z"/>
<path d="M3592 3130 c-32 -20 -35 -40 -6 -40 11 0 14 -15 14 -68 0 -58 -3 -70
-22 -87 l-23 -20 44 -3 c52 -4 60 2 41 31 -10 16 -13 48 -11 115 1 50 1 92 -1
92 -2 0 -18 -9 -36 -20z"/>
</g>
</svg>
